<svg width="42" height="42" viewBox="0 0 42 42" fill="none" xmlns="http://www.w3.org/2000/svg">
<circle cx="21" cy="21" r="21" fill="#696052"/>
<g clip-path="url(#clip0_185_249)">
<path d="M31.054 27.9591C30.6772 28.8297 30.2312 29.631 29.7144 30.3677C29.01 31.372 28.4333 32.0672 27.9888 32.4532C27.2997 33.0869 26.5615 33.4114 25.7709 33.4299C25.2034 33.4299 24.519 33.2684 23.7223 32.9408C22.923 32.6147 22.1884 32.4532 21.5168 32.4532C20.8124 32.4532 20.0569 32.6147 19.2488 32.9408C18.4395 33.2684 17.7875 33.4391 17.2891 33.456C16.531 33.4883 15.7754 33.1546 15.0211 32.4532C14.5397 32.0333 13.9376 31.3136 13.2162 30.2938C12.4423 29.2049 11.806 27.9422 11.3076 26.5026C10.7737 24.9477 10.5061 23.442 10.5061 21.9842C10.5061 20.3144 10.8669 18.8742 11.5896 17.6673C12.1576 16.6979 12.9133 15.9332 13.859 15.3718C14.8047 14.8105 15.8266 14.5244 16.927 14.5061C17.5292 14.5061 18.3188 14.6923 19.3 15.0584C20.2785 15.4257 20.9068 15.6119 21.1823 15.6119C21.3882 15.6119 22.0862 15.3941 23.2694 14.96C24.3883 14.5573 25.3326 14.3906 26.1062 14.4563C28.2025 14.6254 29.7775 15.4518 30.8249 16.9406C28.95 18.0766 28.0226 19.6677 28.0411 21.7088C28.058 23.2986 28.6347 24.6216 29.7683 25.6721C30.282 26.1597 30.8556 26.5365 31.4939 26.8041C31.3555 27.2055 31.2094 27.59 31.054 27.9591V27.9591ZM26.2462 9.03998C26.2462 10.2861 25.7909 11.4496 24.8835 12.5265C23.7884 13.8068 22.4639 14.5465 21.0275 14.4298C21.0092 14.2803 20.9986 14.123 20.9986 13.9576C20.9986 12.7614 21.5194 11.4811 22.4442 10.4343C22.9059 9.90434 23.4931 9.46366 24.2052 9.11211C24.9158 8.76581 25.5879 8.5743 26.22 8.5415C26.2385 8.70809 26.2462 8.87469 26.2462 9.03996V9.03998Z" fill="#F3F3F3"/>
</g>
<defs>
<clipPath id="clip0_185_249">
<rect width="26" height="26" fill="white" transform="translate(8 8)"/>
</clipPath>
</defs>
</svg>
