<svg width="42" height="42" viewBox="0 0 42 42" fill="none" xmlns="http://www.w3.org/2000/svg">
<circle cx="21" cy="21" r="21" fill="#696052"/>
<path fill-rule="evenodd" clip-rule="evenodd" d="M30.58 20.739C30.58 19.9945 30.5132 19.2786 30.3891 18.5913H20.5V22.6529H26.1509C25.9075 23.9654 25.1677 25.0774 24.0557 25.822V28.4565H27.4491C29.4345 26.6286 30.58 23.9368 30.58 20.739Z" fill="#F3F3F3"/>
<path fill-rule="evenodd" clip-rule="evenodd" d="M20.5001 31.0001C23.3351 31.0001 25.7119 30.0599 27.4492 28.4563L24.0558 25.8217C23.1156 26.4517 21.9129 26.824 20.5001 26.824C17.7654 26.824 15.4506 24.9769 14.6249 22.4951H11.1169V25.2156C12.8447 28.6472 16.3956 31.0001 20.5001 31.0001Z" fill="#F3F3F3"/>
<path fill-rule="evenodd" clip-rule="evenodd" d="M14.6248 22.4946C14.4148 21.8646 14.2955 21.1917 14.2955 20.4996C14.2955 19.8076 14.4148 19.1346 14.6248 18.5046V15.7842H11.1168C10.4057 17.2017 10 18.8053 10 20.4996C10 22.194 10.4057 23.7976 11.1168 25.2151L14.6248 22.4946Z" fill="#F3F3F3"/>
<path fill-rule="evenodd" clip-rule="evenodd" d="M20.5001 14.1761C22.0417 14.1761 23.4258 14.7059 24.514 15.7464L27.5256 12.7348C25.7072 11.0405 23.3304 10 20.5001 10C16.3956 10 12.8447 12.353 11.1169 15.7845L14.6249 18.505C15.4506 16.0232 17.7654 14.1761 20.5001 14.1761Z" fill="#F3F3F3"/>
</svg>
